
    <svg width="64" height="64" viewBox="0 0 64 64" fill="none" xmlns="http://www.w3.org/2000/svg">
    <rect width="64" height="64" rx="12" fill="url(#paint0_linear_1_2)"/>
    <path d="M20 23H28V20H20V23Z" fill="white"/>
    <path d="M36 23H44V20H36V23Z" fill="white"/>
    <path fill-rule="evenodd" clip-rule="evenodd" d="M16 16H48C50.2091 16 52 17.7909 52 20V44C52 46.2091 50.2091 48 48 48H16C13.7909 48 12 46.2091 12 44V20C12 17.7909 13.7909 16 16 16ZM16 26V44H48V26H16Z" fill="white" fill-opacity="0.8"/>
    <path d="M28 34H24V38H28V42H36V38H40V34H36V30H28V34Z" fill="url(#paint1_linear_1_2)"/>
    <defs>
    <linearGradient id="paint0_linear_1_2" x1="0" y1="0" x2="64" y2="64" gradientUnits="userSpaceOnUse">
    <stop stop-color="#0052D4"/>
    <stop offset="1" stop-color="#65C7F7"/>
    </linearGradient>
    <linearGradient id="paint1_linear_1_2" x1="24" y1="30" x2="40" y2="42" gradientUnits="userSpaceOnUse">
    <stop stop-color="#FF8C00"/>
    <stop offset="1" stop-color="#FFA500"/>
    </linearGradient>
    </defs>
    </svg>
  